<svg id="Layer_1" data-name="Layer 1" xmlns="http://www.w3.org/2000/svg" viewBox="0 0 100 100"><defs><style>.cls-1{fill:#563e7c;}</style></defs><title>Artboard 2 copy 3</title><path class="cls-1" d="M49.93,97c-10.51,0-21,0-31.53,0A15.56,15.56,0,0,1,3,81.53Q3,50,3,18.46A15.55,15.55,0,0,1,18.41,3Q50,3,81.6,3A15.55,15.55,0,0,1,97,18.48Q97,50,97,81.54A15.56,15.56,0,0,1,81.59,97C71,97,60.48,97,49.93,97ZM28.38,78.39h1.43c8.11,0,16.22,0,24.33,0a37.81,37.81,0,0,0,6.13-.53,17.74,17.74,0,0,0,10.12-4.91c3.15-3.26,3.92-7.31,3.61-11.67-.4-5.6-3.12-10.45-9-12.18-.26-.08-.51-.19-.91-.34.35-.22.55-.36.77-.48a11.72,11.72,0,0,0,6.66-9.74c.46-5.14-1-10-5.82-12.79a20.88,20.88,0,0,0-10.5-2.49c-8.45-.06-16.91,0-25.36,0-1.21,0-1.5.37-1.5,1.54q.05,25.94,0,51.88C28.38,77.12,28.38,77.63,28.38,78.39Z"/><path class="cls-1" d="M38.29,70.15V53.48c.36,0,.73-.07,1.09-.07,5.36,0,10.72,0,16.08,0a12.34,12.34,0,0,1,3.89.69,6.77,6.77,0,0,1,4.77,6.5,14.67,14.67,0,0,1-.31,4.07,7.4,7.4,0,0,1-7.22,5.54c-6,.13-11.92,0-17.88,0A1.69,1.69,0,0,1,38.29,70.15Z"/><path class="cls-1" d="M38.26,46.09V31.41c.5,0,1-.07,1.42-.08,4.67,0,9.35,0,14,0a13.86,13.86,0,0,1,2.81.25c3.9.83,5.69,3.21,5.17,8.23-.42,4-3.06,6.27-7.38,6.4-5.18.15-10.37,0-15.56,0A2.32,2.32,0,0,1,38.26,46.09Z"/></svg>