<svg id="Layer_1" data-name="Layer 1" xmlns="http://www.w3.org/2000/svg" viewBox="0 0 100 100"><defs><style>.cls-1{fill:#f28234;}.cls-2{fill:#f69d3a;}.cls-3{fill:#eee9e3;}.cls-4{fill:#e8955c;}.cls-5{fill:#fdfaf3;}</style></defs><title>Artboard 2 copy 2</title><path class="cls-1" d="M49.93,2c13.25,0,26.5.05,39.74,0,2.44,0,3.09.61,2.84,3.14C91,20.55,89.65,36,88.25,51.42c-1.06,11.68-2.16,23.36-3.15,35C85,88,84.5,88.76,83,89.16,72.62,92,62.25,94.88,51.88,97.75a8.25,8.25,0,0,1-4.47-.13c-9.85-2.74-19.68-5.52-29.55-8.19-1.9-.51-2.8-1.31-3-3.43-1.1-13.08-2.38-26.14-3.57-39.22C10.07,33.18,8.88,19.57,7.6,6,7.23,2.05,7.13,2,11.16,2ZM26.74,57.65l0,.09A26.6,26.6,0,0,0,28,73.26a1.19,1.19,0,0,1,.15.51,1.63,1.63,0,0,0,1.26,1.33c5.06,1.36,10.11,2.8,15.21,4,4,.95,4.14.73,4.14-3.42q0-24.84,0-49.68c0-7.2,0-7.09-7.36-7.12-2.72,0-3.7,1.07-3.61,3.61.24,6.86.45,13.72.65,20.57,0,.8.13,1.51,1,1.79l.11,4.49c-.8.92-.49,2-.49,3.06,0,4.36,0,8.73,0,13.09l-1.24-.2c-.52-1.53-1.74-1-2.81-1a.53.53,0,0,1-.44-.15c-.44-1.71.91-3.77-1-5.17l-.3-.6c-.65-2-1.93-1.41-3.22-.77l-1.24-.19C27.95,56,27.27,56.12,26.74,57.65Zm23.32-8c0,12.71.06,25.41-.05,38.11,0,2.41.61,3,2.89,2.33q11.44-3.27,22.94-6.32c2-.54,2.6-1.58,2.73-3.64.51-8,1.25-16,2-24C81.35,47,82.22,37.81,83,28.66c.49-5.43.68-10.92,1.57-16.29.44-2.68-.15-3.18-2.58-3.16-9.58.08-19.17.12-28.75,0C50.7,9.15,50,10,50,12.48,50.13,24.87,50.07,37.25,50.07,49.63Z"/><path class="cls-2" d="M50.07,49.63c0-12.38.06-24.76-.05-37.15,0-2.53.69-3.34,3.27-3.3,9.58.14,19.16.1,28.75,0,2.43,0,3,.48,2.58,3.16-.88,5.37-1.07,10.85-1.57,16.29-.83,9.16-1.7,18.31-2.51,27.47-.71,8-1.44,16-2,24-.13,2.06-.71,3.1-2.73,3.64q-11.5,3-22.94,6.32c-2.29.65-2.92.08-2.89-2.33C50.13,75,50.07,62.34,50.07,49.63ZM52,35.43c0,4.63.08,9.27,0,13.9,0,2.06.77,2.64,2.69,2.46,2.89-.27,5.8-.35,8.69-.59,1.72-.14,2.34.49,2.11,2.23a44,44,0,0,0-.62,7.07c.12,3.87-1.84,5.21-5.37,6-8,1.78-7.91,2-7.5,10.34.1,2,.68,2.36,2.54,1.82,5.17-1.5,10.37-2.87,15.58-4.21,1.75-.45,1.95-1.6,2.08-3.12.71-8.15,1.43-16.29,2.31-24.42.63-5.83.75-5.82-5.2-5.82-8.49,0-8.43,0-7.71-8.63C61.67,30.67,62.22,30,64,30c3.23.06,6.46-.1,9.69-.1,1.41,0,2.21-.4,2.28-2a42,42,0,0,1,.54-5.13c.39-2.35-.33-3.27-2.88-3.2-6.24.17-12.5.13-18.74,0-2.21,0-3.08.59-3,2.91C52.07,26.81,52,31.12,52,35.43Z"/><path class="cls-3" d="M33.24,58.4l.3.6c-.19,1.83-.43,3.67,1,5.17a.53.53,0,0,0,.44.15,3.55,3.55,0,0,0,2.81,1l1.24.2c2.1.53,1.25-1.18,1.22-1.85-.16-4.77-.45-9.53-.7-14.3q-.06-2.24-.11-4.49c.05-1.28.19-2.57.15-3.85-.19-6-.34-12-.69-18-.15-2.6.81-3.56,3.31-3.29a12.71,12.71,0,0,0,2.58,0c2.17-.2,2.75.86,2.74,2.87q-.07,26.6,0,53.21c0,2.72-1,3.09-3.29,2.44-5.37-1.53-10.76-3-16.14-4.45a1.2,1.2,0,0,0-.15-.51L26.72,57.74l0-.09,2-.21,1.24.19Z"/><path class="cls-4" d="M28.15,73.77c5.38,1.48,10.77,2.92,16.14,4.45,2.28.65,3.31.28,3.29-2.44q-.14-26.6,0-53.21c0-2-.57-3.08-2.74-2.87a12.71,12.71,0,0,1-2.58,0c-2.5-.28-3.46.69-3.31,3.29.35,6,.5,12,.69,18,0,1.28-.09,2.57-.15,3.85-.9-.28-1-1-1-1.79-.21-6.86-.41-13.72-.65-20.57-.09-2.54.89-3.63,3.61-3.61,7.36,0,7.36-.08,7.36,7.12q0,24.84,0,49.68c0,4.15-.15,4.37-4.14,3.42-5.1-1.21-10.14-2.66-15.21-4A1.63,1.63,0,0,1,28.15,73.77Z"/><path class="cls-4" d="M39.59,49.35c.25,4.77.54,9.53.7,14.3,0,.67.87,2.38-1.22,1.85,0-4.36,0-8.73,0-13.09C39.1,51.37,38.79,50.26,39.59,49.35Z"/><path class="cls-4" d="M26.72,57.74,28,73.26A26.6,26.6,0,0,1,26.72,57.74Z"/><path class="cls-4" d="M34.57,64.17c-1.46-1.5-1.22-3.34-1-5.17C35.48,60.41,34.14,62.47,34.57,64.17Z"/><path class="cls-4" d="M33.24,58.4,30,57.63C31.31,57,32.59,56.38,33.24,58.4Z"/><path class="cls-4" d="M28.78,57.44l-2,.21C27.27,56.12,27.95,56,28.78,57.44Z"/><path class="cls-4" d="M37.82,65.31a3.55,3.55,0,0,1-2.81-1C36.08,64.27,37.3,63.78,37.82,65.31Z"/><path class="cls-5" d="M52,35.43c0-4.31.11-8.62,0-12.93-.08-2.32.79-3,3-2.91,6.25.12,12.5.15,18.74,0,2.55-.07,3.27.86,2.88,3.2A42,42,0,0,0,76,27.92c-.06,1.58-.86,2-2.28,2-3.23,0-6.46.15-9.69.1-1.81,0-2.37.67-2.51,2.44-.72,8.63-.77,8.62,7.71,8.63,6,0,5.83,0,5.2,5.82-.88,8.13-1.6,16.27-2.31,24.42C72,72.83,71.79,74,70,74.43c-5.21,1.34-10.41,2.71-15.58,4.21-1.86.54-2.44.16-2.54-1.82-.41-8.37-.51-8.56,7.5-10.34,3.54-.79,5.5-2.12,5.37-6a44,44,0,0,1,.62-7.07c.23-1.73-.4-2.37-2.11-2.23-2.89.24-5.8.32-8.69.59-1.92.18-2.74-.4-2.69-2.46C52,44.7,52,40.06,52,35.43Z"/></svg>