<svg id="Layer_1" data-name="Layer 1" xmlns="http://www.w3.org/2000/svg" viewBox="0 0 126 100"><defs><style>.cls-1{fill:#ef7be4;}</style></defs><title>Artboard 2 copy 5</title><path class="cls-1" d="M2.2,40.62c.15-.56.32-1.12.45-1.68A27,27,0,0,1,9,27.4C14.86,20.67,22.18,15.92,30.09,12A73.57,73.57,0,0,1,47,5.65c7.42-1.6,14.82-1.89,22.08.81a15.46,15.46,0,0,1,7,4.78c2.78,3.51,3.2,7.56,2.19,11.71C76,32.21,70,38.38,61.6,42.33a39.82,39.82,0,0,1-20,3.64A13.52,13.52,0,0,1,31.7,41.3a9.92,9.92,0,0,1-1.24-2.4c-.08-.17.09-.53.25-.69s.48,0,.61.14c4.35,4.44,9.75,4.42,15.28,3.5a36.19,36.19,0,0,0,18.68-8.72c3.39-3,6.07-6.56,7.06-11.15.85-3.95-.6-7-4.24-8.71a19.72,19.72,0,0,0-7.93-1.75c-8.4-.28-16.18,2.06-23.65,5.64-6.7,3.21-13.12,6.9-18.53,12.1-2.92,2.8-5.32,6-6.36,10A11.21,11.21,0,0,0,14.2,50.2a113.81,113.81,0,0,0,8.51,7.73c2.35,2.06,4.79,4,7.15,6.08a1.07,1.07,0,0,0,1.45.19c3.6-2,7.23-4,10.82-6a4.13,4.13,0,0,0,1.11-1,19.66,19.66,0,0,1,7.35-5.89,7.15,7.15,0,0,1,2-.6c2.94-.32,4.53,1.21,4.64,4.43,0,1-.11,2-.16,2.88a11,11,0,0,1,2.63-.14c1.16.22,1.55,1.07,1.25,2.25C60,63.91,59,67.65,58.17,71.42a28.86,28.86,0,0,0-.37,4l.51.16a8.21,8.21,0,0,0,.88-1.24c2.44-5.24,4.94-10.45,7.25-15.75,1.58-3.61,2.87-7.35,4.36-11A2,2,0,0,1,72,46.52a28,28,0,0,1,4.71-.29c1.13,0,1.49.73,1.09,1.82-1.16,3.19-1.73,6.43-.76,9.76.36,1.23,1,2.38,1.56,3.86.43-.61.68-.9.86-1.22,1.62-2.86,3.36-5.66,4.79-8.62a55.58,55.58,0,0,0,2.68-7.2A2.3,2.3,0,0,1,89,42.72a29.25,29.25,0,0,1,4.23-.07c1.11.08,1.33.66,1,1.74A35.72,35.72,0,0,0,93,50c-.28,3.18.92,6,2.49,8.76.37.65.76.51,1.28.27a24,24,0,0,1,11.79-2.15c5.91.44,11,2.55,13.94,8.06,2.59,4.81,1.11,9.94-3.35,12.11a10.93,10.93,0,0,1-1.7.52l-.21-.39a8.13,8.13,0,0,1,.77-.7c4.21-3,4.71-7.2,1.29-11.07a14.13,14.13,0,0,0-8.15-4.28,25.07,25.07,0,0,0-12.65.52c-1.14.36-1.4.83-1,1.95,1.47,4,.23,7.17-2.93,9.8a17.1,17.1,0,0,1-6.74,3.38,2.91,2.91,0,0,1-3.69-3.51c.67-4.15,3.12-7.21,6.1-9.92a1.66,1.66,0,0,0,.48-2.28c-1-2.44-1.74-5-2.58-7.48-.07-.22-.1-.46-.17-.69s-.14-.19-.3-.39c-.82,1.51-1.53,3-2.35,4.34q-2.18,3.68-4.47,7.29a1.82,1.82,0,0,0-.2,1.86c1.08,2.71,1.6,5.46.35,8.28a9.72,9.72,0,0,1-4.41,4.5,16.84,16.84,0,0,1-7.1,2.12,5.64,5.64,0,0,1-2.09-.31,1.59,1.59,0,0,1-1-2.2,7.42,7.42,0,0,1,1.07-1.83c2.39-3,4.83-6,7.19-9a1.68,1.68,0,0,0,.19-1.46,33.25,33.25,0,0,1-3.22-9.27c0-.17-.19-.32-.4-.66-.56,1.34-1.08,2.52-1.57,3.72a152.49,152.49,0,0,1-9.27,18.72,12.67,12.67,0,0,1-2.48,3c-2,1.78-4.31,1.12-4.83-1.51a41,41,0,0,1-.33-6.36.86.86,0,0,0-.21-.61L52,74.23c-1.25,2.56-2.38,5.18-3.78,7.66-1.23,2.2-3.14,2.93-5.2,2.13a4.8,4.8,0,0,1-2.14-1.76,16.91,16.91,0,0,1-2.56-11.8c.31-2.25.77-4.48,1.21-6.94-1.37.77-2.64,1.45-3.89,2.18-1,.55-2.29.95-2.72,1.79s.39,1.94.63,2.95A20.18,20.18,0,0,1,17.81,95.18l-2,.39H14.33a6.29,6.29,0,0,0-1.12-.3C9.06,94.92,6.49,92.17,6.32,88c-.19-4.57,1.72-8.19,5-11.22a56,56,0,0,1,11.5-7.95l3.58-1.93c-1.28-1-2.34-1.84-3.45-2.63-4.77-3.39-9.76-6.5-14-10.64-2.83-2.78-5.23-5.84-6.27-9.77-.12-.45-.31-.87-.47-1.31Zm27,28.68a2.33,2.33,0,0,0-.6.07c-4.32,2.51-8.57,5.15-12,8.88A10.62,10.62,0,0,0,13.53,86a2.7,2.7,0,0,0,2.85,2.82,8.83,8.83,0,0,0,4.88-1.22A15.7,15.7,0,0,0,29.78,73.7,27.11,27.11,0,0,0,29.22,69.3ZM44,72.19c.11.9.16,1.82.35,2.7S44.6,77,45.67,77c.61,0,1.45-.92,1.77-1.62,1.3-2.79,2.57-5.61,3.61-8.51,1.19-3.34,2.19-6.76,3.15-10.17.38-1.36-.48-2.08-1.73-1.45a9.45,9.45,0,0,0-3.11,2.29A23.48,23.48,0,0,0,44,72.19ZM92.9,64.71c-2.28,1-5.33,6.46-4.7,8.48C91.82,72.92,94.55,68,92.9,64.71ZM70.59,77.16c2.68.44,6.85-4.45,6.11-7.13Z"/></svg>