<svg id="Layer_1" data-name="Layer 1" xmlns="http://www.w3.org/2000/svg" viewBox="0 0 100 100"><defs><style>.cls-1{fill:#e51717;}</style></defs><title>Artboard 2 copy 4</title><path class="cls-1" d="M50.56,2c2.19.33,3.71,1.68,5.22,3.19Q75.84,25.28,96,45.35a6.1,6.1,0,0,1,0,9.12Q75.23,75.19,54.51,95.92A7.57,7.57,0,0,1,50.38,98h-.94c-2.21-.28-3.73-1.66-5.21-3.19-2.39-2.47-4.86-4.87-7.39-7.39.63-.61,1.22-1.15,1.79-1.72,2.88-2.87,5.76-5.74,8.61-8.64a1.29,1.29,0,0,1,1.39-.4,7.27,7.27,0,0,0,8.92-7.14c0-.65-.16-1.29-.17-1.94a1.34,1.34,0,0,1,.27-.88q4.85-4.91,9.75-9.75a1.35,1.35,0,0,1,1.05-.29A7.37,7.37,0,0,0,77.61,49a7,7,0,0,0-4.35-6.27,7.11,7.11,0,0,0-7.42.8,7.52,7.52,0,0,0-2.72,8.15,1.09,1.09,0,0,1-.13.89c-3,3.07-6.09,6.12-9.14,9.17,0,0-.11,0-.26,0,0-.31,0-.6,0-.9,0-7.88,0-15.76,0-23.65a1.8,1.8,0,0,1,1-1.72,7.4,7.4,0,1,0-11.64-6.91,7.61,7.61,0,0,0,4,7.48,1.14,1.14,0,0,1,.51.82q0,12.57,0,25.15a1.25,1.25,0,0,1-.57.89,7.43,7.43,0,0,0-3.57,8.86,1,1,0,0,1-.11.8c-3.45,3.49-6.92,7-10.47,10.51-.31-.29-.59-.52-.84-.78L4.07,54.68a6.11,6.11,0,0,1,0-9.18l12-12Q30.26,19.32,44.42,5.14c1.49-1.5,3-2.9,5.21-3.19Z"/></svg>