<svg id="Layer_1" data-name="Layer 1" xmlns="http://www.w3.org/2000/svg" viewBox="0 0 100 100"><defs><style>.cls-1{fill:#470137;}.cls-2{fill:#fd60f4;}.cls-3{fill:#480238;}</style></defs><title>Artboard 2 copy 6</title><path class="cls-1" d="M104.81,50.08q0,27.5,0,55c0,.72-.1.91-.88.91q-55,0-110,0c-.82,0-.93-.21-.93-1q0-55,0-109.9c0-.75.1-1,.93-1q55,0,110,0c.77,0,.88.19.88.91Q104.79,22.58,104.81,50.08ZM87.12,46.52H87c0-7.71,0-15.43,0-23.14,0-.86-.2-1.25-1.15-1.22-2.66.06-5.31,0-8,0-.87,0-1.11.29-1.1,1.14,0,4.33,0,8.66,0,13,0,.79-.22,1-1,.92a24.16,24.16,0,0,0-6.94.41C54.13,40.55,49.89,55.42,55.2,66.26c2.61,5.32,7.35,7.83,13,8.68A35.2,35.2,0,0,0,86.65,72.5a1,1,0,0,0,.67-1.1c-.08-.91-.19-1.81-.19-2.72Q87.11,57.6,87.12,46.52ZM30.2,56.32c.16.26.26.41.34.56,3,5.41,6,10.8,8.75,16.32.36.73.78,1.32,1.68,1.33H51.45c.74,0,.89-.36.55-1-.14-.26-.29-.5-.44-.75Q44.78,61.68,38,50.57a1.58,1.58,0,0,1,0-1.94c4.33-7.06,8.61-14.16,12.9-21.24.63-1,.54-1.21-.69-1.21-2.87,0-5.75,0-8.62,0a1.49,1.49,0,0,0-1.52.93c-1.88,3.61-3.82,7.18-5.71,10.78-1.09,2.07-2.15,4.17-3.22,6.26-.14-.09-.23-.11-.25-.16C28.11,38.36,24.6,33.15,22,27.44a1.89,1.89,0,0,0-2-1.28c-3.06,0-6.11,0-9.17,0-.39,0-.9-.13-1.12.25s.21.73.4,1.05Q16.61,38.41,23.1,49.33a1.6,1.6,0,0,1,0,1.94c-4.5,7.3-8.94,14.63-13.4,22-.2.33-.54.68-.32,1.09s.66.2,1,.2c2.95,0,5.89,0,8.84,0A1.76,1.76,0,0,0,21,73.48c1.85-3.5,3.76-7,5.64-10.45C27.85,60.83,29,58.61,30.2,56.32Z"/><path class="cls-2" d="M87.12,46.52q0,11.08,0,22.16c0,.91.11,1.81.19,2.72a1,1,0,0,1-.67,1.1,35.2,35.2,0,0,1-18.48,2.44c-5.62-.86-10.37-3.36-13-8.68-5.31-10.84-1.06-25.71,13.74-28.65a24.16,24.16,0,0,1,6.94-.41c.76.07,1-.13,1-.92,0-4.33,0-8.66,0-13,0-.85.23-1.16,1.1-1.14,2.66,0,5.31.05,8,0,1,0,1.16.37,1.15,1.22,0,7.71,0,15.43,0,23.14ZM76.85,56.07c0-3.09,0-6.18,0-9.27,0-.53-.07-.83-.7-1-5.73-1.11-11.88,2.45-12.5,8.37-.35,3.3,0,6.53,2.17,9.18,2.63,3.15,6.25,3.32,10,2.95.89-.09,1.08-.5,1.06-1.34C76.82,62,76.85,59.05,76.85,56.07Z"/><path class="cls-2" d="M30.2,56.32c-1.2,2.29-2.35,4.5-3.53,6.7-1.87,3.49-3.78,7-5.64,10.45a1.76,1.76,0,0,1-1.8,1.08c-2.95,0-5.89,0-8.84,0-.34,0-.78.2-1-.2s.12-.76.32-1.09c4.46-7.33,8.91-14.66,13.4-22a1.6,1.6,0,0,0,0-1.94Q16.6,38.42,10.16,27.48c-.19-.33-.63-.66-.4-1.05s.72-.25,1.12-.25c3.06,0,6.11,0,9.17,0a1.89,1.89,0,0,1,2,1.28C24.6,33.15,28.11,38.36,30.84,44c0,.05.11.07.25.16,1.08-2.09,2.13-4.19,3.22-6.26,1.9-3.6,3.84-7.17,5.71-10.78a1.49,1.49,0,0,1,1.52-.93c2.87,0,5.75,0,8.62,0,1.23,0,1.32.17.69,1.21C46.57,34.47,42.29,41.57,38,48.63a1.58,1.58,0,0,0,0,1.94Q44.8,61.66,51.57,72.8c.15.25.3.5.44.75.34.62.19,1-.55,1H41c-.9,0-1.32-.6-1.68-1.33-2.76-5.53-5.77-10.91-8.75-16.32C30.46,56.73,30.36,56.58,30.2,56.32Z"/><path class="cls-3" d="M76.85,56.07c0,3,0,6,0,8.94,0,.84-.17,1.25-1.06,1.34-3.74.38-7.35.2-10-2.95-2.22-2.65-2.52-5.87-2.17-9.18.62-5.92,6.78-9.49,12.5-8.37.64.12.71.42.7,1C76.84,49.9,76.85,53,76.85,56.07Z"/></svg>