<svg id="Layer_1" data-name="Layer 1" xmlns="http://www.w3.org/2000/svg" viewBox="0 0 100 100"><defs><style>.cls-1{fill:#ed5b33;}.cls-2{fill:#f07836;}.cls-3{fill:#efe4df;}.cls-4{fill:#eee9e3;}.cls-5{fill:#fdfbf8;}</style></defs><title>Artboard 2</title><path class="cls-1" d="M50,1.65c13.26,0,26.51.06,39.77-.05,2.55,0,3.37.56,3.12,3.25C90.42,31.23,88,57.61,85.79,84c-.32,3.85-1.68,5.54-5.45,6.45-9.07,2.18-18,4.83-27,7.36a10.19,10.19,0,0,1-5.74.31c-10-2.83-20.06-5.64-30.13-8.35-2-.53-2.73-1.39-2.91-3.5C12.71,65,10.76,43.67,8.83,22.36c-.52-5.73-.94-11.47-1.66-17.18-.34-2.65.12-3.63,3.06-3.6C23.48,1.74,36.74,1.65,50,1.65ZM49.06,68.5c-2.84-.69-5.65-1.5-8.52-2-2-.37-2.66-1.42-2.87-3.29-.69-6-.74-6-6.72-6a16.52,16.52,0,0,1-2,0c-2-.24-2.7.63-2.47,2.62.48,4.2.86,8.41,1.21,12.62a2.06,2.06,0,0,0,1.65,2.09l19.94,5.62c1.28,2.81.44,5.78.62,8.67.1,1.54.2,2.48,2.24,1.89,8.11-2.34,16.25-4.55,24.4-6.74,1.21-.32,2-.77,2.06-2.08.2-2.69.45-5.38.67-8.07.47-5.7.9-11.41,1.41-17.11Q81.92,43.33,83.22,30c.57-5.9,1.11-11.81,1.85-17.69C85.4,9.7,84.72,8.8,82,8.86c-7.27.16-14.55,0-21.83.08-3.23,0-7.4-1.38-9.46.58-2.24,2.13-.48,6.38-.78,9.69q-11.39.09-22.77.18c-4.17,0-4.22,0-3.9,4,.43,5.4.75,10.83,1.48,16.19.56,4.14-.08,8.45,1.75,12.41.88.92,2,.57,3.06.58,4,0,8,0,12,0,8.42,0,8.5,0,8.36,8.41C49.86,63.51,50.87,66.19,49.06,68.5Z"/><path class="cls-2" d="M50,19.21c.3-3.31-1.45-7.57.78-9.69,2.06-2,6.22-.54,9.46-.58C67.47,8.86,74.75,9,82,8.86c2.7-.06,3.38.83,3.05,3.41-.74,5.88-1.28,11.79-1.85,17.69q-1.29,13.37-2.51,26.74c-.51,5.7-.94,11.41-1.41,17.11-.22,2.69-.46,5.38-.67,8.07-.1,1.31-.85,1.76-2.06,2.08-8.15,2.18-16.29,4.4-24.4,6.74-2,.59-2.15-.35-2.24-1.89-.19-2.89.66-5.86-.62-8.67l.66-.3c7.07-1.2,13.81-3.67,20.75-5.39,1.17-.29,1.39-1.15,1.48-2.21.47-5.63,1.32-11.22,1.32-16.88A1.07,1.07,0,0,0,73.74,54l.15-1.39.06-.64c.36-3,1-6.06.74-9.15.5-.73.46-1.26-.53-1.45a192.5,192.5,0,0,0-24.26,0,1.75,1.75,0,0,0,.07-.53V30.5A1.79,1.79,0,0,0,49.9,30a230,230,0,0,0,25.44,0c.73.09.67-.39.61-.86L76,27.83a7.88,7.88,0,0,0,.49-4.53,6.55,6.55,0,0,0,0-3.3c.05-.41-.14-.53-.51-.41l-1.35,0Q63.33,19,52,19.55H50.58Z"/><path class="cls-3" d="M50,19.21l.63.35c-1.33,3.4-.27,7-.69,10.43a1.79,1.79,0,0,1,.07.51c-4.11-.06-8.21-.14-12.32-.16-1.22,0-3.13-.31-2.6,1.72.76,3-1.13,6.66,2.28,8.94.08.05.21,0,.32,0L50,40.83a1.74,1.74,0,0,1-.07.53L50,51.71,26.51,52c-1.83-4-1.19-8.27-1.75-12.41-.73-5.37-1-10.79-1.48-16.19-.32-4-.27-4,3.9-4Q38.56,19.32,50,19.21Z"/><path class="cls-4" d="M50,79.84l-.66.3L29.37,74.51a2.06,2.06,0,0,1-1.65-2.09C27.38,68.22,27,64,26.52,59.81c-.23-2,.44-2.86,2.47-2.62a16.52,16.52,0,0,0,2,0c6,0,6,0,6.72,6,.22,1.87.92,2.92,2.87,3.29,2.87.54,5.68,1.35,8.52,2l.92.58Q50,74.46,50,79.84Z"/><path class="cls-2" d="M50,69.07l-.92-.58c1.81-2.31.8-5,.84-7.47.14-8.41.05-8.41-8.36-8.41-4,0-8,0-12,0-1,0-2.18.34-3.06-.58L50,51.71a78.85,78.85,0,0,0,11.72.07l.64,0c1.52,4.51-.2,8.9-.55,13.33-.07.9-1.29,1-2.12,1.24Z"/><path class="cls-5" d="M61.7,51.78A78.85,78.85,0,0,1,50,51.71L49.9,41.36a192.49,192.49,0,0,1,24.26,0,1.34,1.34,0,0,0,.53,1.45c.22,3.09-.39,6.11-.74,9.15-.07.06-.21.13-.2.17a2.49,2.49,0,0,0,.14.47L73.74,54l-.22,1.36c0,5.66-.86,11.26-1.32,16.88-.09,1.07-.31,1.92-1.48,2.21C63.78,76.17,57,78.64,50,79.84q0-5.38,0-10.76l9.69-2.7c.83-.23,2.05-.34,2.12-1.24.35-4.43,2.07-8.82.55-13.33C62.14,51.51,61.93,51.49,61.7,51.78Z"/><path class="cls-5" d="M49.9,30c.42-3.46-.65-7,.69-10.43h1.37c3.92,1.06,7.91.39,11.86.41,3.62,0,7.3.58,10.89-.42l1.35,0,.51.41a6.55,6.55,0,0,1,0,3.3c-.55,1.47-1.11,2.93-.49,4.53l-.08,1.32-.61.86A230,230,0,0,1,49.9,30Z"/><path class="cls-1" d="M50,40.83,37.66,41c-.11,0-.24,0-.32,0-3.41-2.28-1.52-6-2.28-8.94-.52-2,1.39-1.73,2.6-1.72,4.11,0,8.21.1,12.32.16Q50,35.66,50,40.83Z"/><path class="cls-3" d="M74.7,19.55c-3.59,1-7.27.44-10.89.42-4,0-7.94.65-11.86-.41Q63.33,19,74.7,19.55Z"/><path class="cls-3" d="M76,27.83c-.62-1.59-.06-3.06.49-4.53A7.88,7.88,0,0,1,76,27.83Z"/><path class="cls-3" d="M74.69,42.81a1.34,1.34,0,0,1-.53-1.45C75.15,41.55,75.18,42.08,74.69,42.81Z"/><path class="cls-3" d="M75.33,30l.61-.86C76,29.62,76.06,30.09,75.33,30Z"/><path class="cls-3" d="M73.52,55.36,73.74,54A1.07,1.07,0,0,1,73.52,55.36Z"/><path class="cls-3" d="M76.57,20l-.51-.41C76.43,19.47,76.62,19.59,76.57,20Z"/><path class="cls-3" d="M73.89,52.61a2.49,2.49,0,0,1-.14-.47s.13-.12.2-.17Z"/><path class="cls-3" d="M61.7,51.78c.23-.29.44-.27.64,0Z"/></svg>