<svg id="Layer_1" data-name="Layer 1" xmlns="http://www.w3.org/2000/svg" viewBox="0 0 100 100"><defs><style>.cls-1{fill:#057dc2;}.cls-2{fill:#058fd3;}.cls-3{fill:#e1eaee;}.cls-4{fill:#f7fcfd;}</style></defs><title>Artboard 2 copy</title><path class="cls-1" d="M50.22,2.07C63.14,2.07,76.06,2.13,89,2c2.61,0,3.56.49,3.3,3.34-1.94,20.78-3.73,41.57-5.56,62.36-.53,6-1.13,12-1.53,18-.13,1.89-.68,2.8-2.62,3.34C72.5,91.83,62.5,94.77,52.48,97.67a7.8,7.8,0,0,1-4.43,0c-10.24-2.9-20.47-5.83-30.75-8.58-2.07-.55-2.66-1.53-2.82-3.52C12.88,65.64,11.2,45.7,9.53,25.76,9,19,8.51,12.24,7.76,5.51,7.47,2.87,8,2,10.83,2,24,2.15,37.09,2.07,50.22,2.07ZM48.88,67.33a1.38,1.38,0,0,0-1.47-.39c-2.53.2-4.81-1-7.24-1.27C38.41,65.46,38,64.58,37.7,63c-1-5.83-1-5.82-7.17-5.82-.75,0-1.51,0-2.26,0-1.3-.06-1.64.55-1.53,1.79.38,4.28.7,8.57,1,12.85a2.25,2.25,0,0,0,1.75,2.35C36.42,76,43.33,78,50.23,79.89c0,2.26.08,4.52,0,6.78s.54,3.07,3,2.32c7.28-2.21,14.59-4.37,22-6.18,3.35-.82,4.17-2.61,4.17-5.7a68,68,0,0,1,.75-10.88c1.32-8.15,1.45-16.39,2.32-24.57,1-9.35,1.38-18.76,2.62-28.09.3-2.24-.4-3.07-2.75-3-8.61.11-17.22,0-25.83.06-7.14.07-6.11-1.36-6.29,6.31-.05,2.14.72,2.79,2.81,2.76,6.56-.1,13.13-.06,19.7,0,1.13,0,2.39-.42,3.36.62l-20.65,0c-9.9,0-19.79,0-29.69.08-1.14,0-2.6-.57-2.72,1.65-.38,7.29.87,8.73,8,8.73H48.12A188.67,188.67,0,0,1,30.77,39c-6,2.6-5.83,2.59-5.22,9.24.25,2.71,1.29,3.29,3.8,3.3,7,0,14-.45,20.93.23l0,15.7Z"/><path class="cls-2" d="M76.06,20.26c-1-1-2.22-.61-3.36-.62-6.57,0-13.13-.08-19.7,0-2.08,0-2.86-.62-2.81-2.76.19-7.68-.84-6.24,6.29-6.31,8.61-.09,17.22,0,25.83-.06,2.35,0,3,.8,2.75,3-1.24,9.33-1.62,18.74-2.62,28.09-.87,8.18-1,16.43-2.32,24.57a68,68,0,0,0-.75,10.88c0,3.1-.82,4.88-4.17,5.7-7.39,1.8-14.69,4-22,6.18-2.47.75-3.12,0-3-2.32s0-4.52,0-6.78l1.5-.68H52l.2-.15a2.13,2.13,0,0,0,2-.62c5.25-1.55,10.49-3.15,15.76-4.64,1.6-.45,1.8-1.57,1.91-2.92.76-8.9,1.48-17.8,2.4-26.68.28-2.7-.43-3.56-3.2-3.46-5.82.2-11.66.06-17.49.06a13.17,13.17,0,0,1,4.25-2.53c6.05-2.71,12.48-4.58,18.28-7.88.92-3,.59-6,.14-9a.35.35,0,0,0-.14-.51A.82.82,0,0,0,76.06,20.26Z"/><path class="cls-3" d="M76.06,20.26a.82.82,0,0,1,0,.63c-7.64,0-15.28.1-22.92,0-2.27,0-3,.71-2.94,3,.1,9.15,0,18.29,0,27.44a1.65,1.65,0,0,1,.06.49c-7-.68-14-.22-20.93-.23-2.51,0-3.55-.58-3.8-3.3-.61-6.65-.77-6.64,5.22-9.24a188.67,188.67,0,0,0,17.35-8.26H31c-7.14,0-8.38-1.44-8-8.73.11-2.22,1.57-1.64,2.72-1.65,9.9-.06,19.79-.07,29.69-.08Z"/><path class="cls-3" d="M51.73,79.21l-1.5.68C43.33,78,36.42,76,29.51,74.15a2.25,2.25,0,0,1-1.75-2.35c-.32-4.29-.63-8.57-1-12.85-.11-1.24.22-1.85,1.53-1.79.75,0,1.5,0,2.26,0,6.15,0,6.21,0,7.17,5.82.26,1.6.71,2.48,2.48,2.69,2.43.29,4.71,1.47,7.24,1.27a1.49,1.49,0,0,0,1.46.39l1.38.14,2.55,0c-2.17.59-2.87,2-2.62,4.19a38.15,38.15,0,0,1,0,5.11C50.21,78,50.36,79,51.73,79.21Z"/><path class="cls-2" d="M52.81,67.51l-2.55,0q0-7.85,0-15.69a1.65,1.65,0,0,0-.06-.49c1.81.06,3.62.18,5.44.18,7.41,0,7.41,0,6.73,7.28-.64,6.89-.64,6.89-7.42,8.18C54.25,67.06,53.53,67.31,52.81,67.51Z"/><path class="cls-2" d="M48.88,67.33a1.49,1.49,0,0,1-1.46-.39A1.38,1.38,0,0,1,48.88,67.33Z"/><path class="cls-4" d="M52.81,67.51c.72-.2,1.43-.44,2.17-.58,6.78-1.29,6.78-1.29,7.42-8.18.67-7.27.67-7.26-6.73-7.28-1.81,0-3.62-.12-5.44-.18,0-9.15.06-18.29,0-27.44,0-2.25.66-3,2.94-3,7.64.11,15.28,0,22.92,0a.35.35,0,0,1,.14.51q-.07,4.5-.14,9c-5.8,3.3-12.22,5.16-18.28,7.88a13.17,13.17,0,0,0-4.25,2.53c5.83,0,11.66.14,17.49-.06,2.77-.1,3.48.76,3.2,3.46-.92,8.88-1.63,17.78-2.4,26.68-.12,1.35-.31,2.47-1.91,2.92-5.27,1.49-10.51,3.09-15.76,4.64-.74-.07-1.48-.12-2,.62l-.2.15h-.25c-1.37-.25-1.53-1.24-1.5-2.4a38.15,38.15,0,0,0,0-5.11C49.94,69.51,50.64,68.1,52.81,67.51Z"/><path class="cls-3" d="M76,30.41q.07-4.5.14-9C76.63,24.41,77,27.42,76,30.41Z"/><path class="cls-3" d="M52.17,79.07c.49-.74,1.22-.69,2-.62A2.13,2.13,0,0,1,52.17,79.07Z"/></svg>